<?xml version="1.0" encoding="UTF-8"?>
<!DOCTYPE svg PUBLIC "-//W3C//DTD SVG 1.1//EN" "http://www.w3.org/Graphics/SVG/1.1/DTD/svg11.dtd">
<!-- Creator: CorelDRAW -->
<svg xmlns="http://www.w3.org/2000/svg" xml:space="preserve" width="139.888mm" height="97.9931mm" version="1.1" style="shape-rendering:geometricPrecision; text-rendering:geometricPrecision; image-rendering:optimizeQuality; fill-rule:evenodd; clip-rule:evenodd"
viewBox="0 0 14142.39 9906.93"
 xmlns:xlink="http://www.w3.org/1999/xlink"
 xmlns:xodm="http://www.corel.com/coreldraw/odm/2003">
 <defs>
  <style type="text/css">
   <![CDATA[
    .fil0 {fill:white}
   ]]>
  </style>
 </defs>
 <g id="Ebene_x0020_1">
  <metadata id="CorelCorpID_0Corel-Layer"/>
  <path class="fil0" d="M5661.07 7076.36l0 -4245.81 3667.38 2117.75 -3667.38 2128.07zm8181.81 -5526.78c-165.35,-609.49 -630.21,-1084.72 -1250.04,-1250.01 -1095.02,-299.57 -5526.81,-299.57 -5526.81,-299.57 0,0 -4421.42,0 -5516.45,299.57 -609.52,165.29 -1084.72,640.52 -1260.34,1250.01 -289.24,1095.02 -289.24,3398.71 -289.24,3398.71 0,0 0,2303.68 289.24,3409.05 175.62,599.18 650.82,1084.68 1260.34,1250 1095.03,299.58 5516.45,299.58 5516.45,299.58 0,0 4431.78,0 5526.81,-299.58 619.83,-165.32 1084.69,-650.82 1250.04,-1250 299.51,-1105.37 299.51,-3409.05 299.51,-3409.05 0,0 0,-2303.68 -299.51,-3398.71z"/>
 </g>
</svg>
